<!-- Distribution Shape Sets Reliability | Book: Prompt Engineering | Chapter: 01-the-stochastic-machine | Figure: 02 | Generated: 2026-05-29 | Source: pantry/01-the-stochastic-machine-cajal.md -->
<svg viewBox="0 0 700 420" xmlns="http://www.w3.org/2000/svg" role="img" aria-labelledby="fig-title-02 fig-desc-02"><title id="fig-title-02">Distribution shape sets reliability: peaked versus flat</title><desc id="fig-desc-02">Two bar-chart panels. A peaked distribution sends repeated draws to one converged answer; a flat distribution scatters repeated draws across different answers. Same machine, different shape.</desc><metadata><cajal:figure xmlns:cajal="https://bearbrown.ai/cajal/1.0" book-slug="prompt-engineering" chapter="01-the-stochastic-machine" figure-number="02" date-generated="2026-05-29"/></metadata>
<rect x="0" y="0" width="700" height="420" fill="#FFFFFF"/>
<defs>
<marker id="arrow2" viewBox="0 0 10 10" refX="9" refY="5" markerWidth="7" markerHeight="7" orient="auto-start-end"><path d="M0 0 L10 5 L0 10 z" fill="#2a1a0e"/></marker>
</defs>
<text x="350" y="32" text-anchor="middle" font-family="'EB Garamond',Georgia,serif" font-size="16" fill="#2a1a0e">Reliability is a property of shape</text>
<text x="350" y="52" text-anchor="middle" font-family="'Inter',-apple-system,'Helvetica Neue',sans-serif" font-size="12" fill="#545454">A peaked distribution converges; a flat one scatters</text>

<!-- LEFT: peaked -->
<text x="160" y="86" text-anchor="middle" font-family="'Inter',-apple-system,'Helvetica Neue',sans-serif" font-size="13" fill="#2a1a0e">Peaked</text>
<g>
<rect x="60" y="100" width="200" height="180" fill="#F5F5F5" stroke="#D4D4D4" stroke-width="1"/>
<line x1="60" y1="270" x2="260" y2="270" stroke="#2a1a0e" stroke-width="1"/>
<line x1="60" y1="100" x2="60" y2="270" stroke="#2a1a0e" stroke-width="1"/>
<rect x="74" y="265" width="22" height="5" fill="#545454"/>
<rect x="104" y="120" width="22" height="150" fill="#545454"/>
<rect x="134" y="262" width="22" height="8" fill="#545454"/>
<rect x="164" y="266" width="22" height="4" fill="#545454"/>
<rect x="194" y="263" width="22" height="7" fill="#545454"/>
<rect x="224" y="267" width="22" height="3" fill="#545454"/>
</g>
<!-- converged outputs -->
<line x1="262" y1="190" x2="288" y2="190" stroke="#2a1a0e" stroke-width="1.5" marker-end="url(#arrow2)"/>
<rect x="294" y="150" width="36" height="20" fill="#C8102E"/>
<rect x="294" y="180" width="36" height="20" fill="#C8102E"/>
<rect x="294" y="210" width="36" height="20" fill="#C8102E"/>
<text x="160" y="306" text-anchor="middle" font-family="'Inter',-apple-system,'Helvetica Neue',sans-serif" font-size="11" fill="#545454">Draws converge</text>

<!-- RIGHT: flat -->
<text x="500" y="86" text-anchor="middle" font-family="'Inter',-apple-system,'Helvetica Neue',sans-serif" font-size="13" fill="#2a1a0e">Flat</text>
<g>
<rect x="400" y="100" width="200" height="180" fill="#F5F5F5" stroke="#D4D4D4" stroke-width="1"/>
<line x1="400" y1="270" x2="600" y2="270" stroke="#2a1a0e" stroke-width="1"/>
<line x1="400" y1="100" x2="400" y2="270" stroke="#2a1a0e" stroke-width="1"/>
<rect x="412" y="196" width="22" height="74" fill="#545454"/>
<rect x="442" y="188" width="22" height="82" fill="#545454"/>
<rect x="472" y="192" width="22" height="78" fill="#545454"/>
<rect x="502" y="186" width="22" height="84" fill="#545454"/>
<rect x="532" y="194" width="22" height="76" fill="#545454"/>
<rect x="562" y="190" width="22" height="80" fill="#545454"/>
</g>
<line x1="602" y1="190" x2="628" y2="190" stroke="#2a1a0e" stroke-width="1.5" marker-end="url(#arrow2)"/>
<rect x="634" y="148" width="44" height="18" fill="#545454"/>
<rect x="634" y="180" width="28" height="22" fill="#545454"/>
<rect x="634" y="214" width="38" height="16" fill="#545454"/>
<text x="500" y="306" text-anchor="middle" font-family="'Inter',-apple-system,'Helvetica Neue',sans-serif" font-size="11" fill="#545454">Draws scatter</text>

<text x="350" y="350" text-anchor="middle" font-family="'Inter',-apple-system,'Helvetica Neue',sans-serif" font-size="11" fill="#545454">The same machine produces reliable or scattered answers depending only on the shape it samples from.</text>
<text x="350" y="370" text-anchor="middle" font-family="'Inter',-apple-system,'Helvetica Neue',sans-serif" font-size="11" fill="#545454">Bars rise from a shared zero baseline.</text>
</svg>