<!-- Validating a Prompt by Sampling | Book: Prompt Engineering | Chapter: 01-the-stochastic-machine | Figure: 04 | Generated: 2026-05-29 | Source: pantry/01-the-stochastic-machine-cajal.md -->
<svg viewBox="0 0 700 420" xmlns="http://www.w3.org/2000/svg" role="img" aria-labelledby="fig-title-04 fig-desc-04"><title id="fig-title-04">Validating a prompt by sampling the distribution</title><desc id="fig-desc-04">A fixed prompt fans out into many repeated runs, whose outputs collapse into a three-bar summary chart of categorized outcomes. The summary distribution, not any single run, is the engineering object.</desc><metadata><cajal:figure xmlns:cajal="https://bearbrown.ai/cajal/1.0" book-slug="prompt-engineering" chapter="01-the-stochastic-machine" figure-number="04" date-generated="2026-05-29"/></metadata>
<rect x="0" y="0" width="700" height="420" fill="#FFFFFF"/>
<defs>
<marker id="arrow4" viewBox="0 0 10 10" refX="9" refY="5" markerWidth="6" markerHeight="6" orient="auto-start-end"><path d="M0 0 L10 5 L0 10 z" fill="#2a1a0e"/></marker>
</defs>
<text x="350" y="32" text-anchor="middle" font-family="'EB Garamond',Georgia,serif" font-size="16" fill="#2a1a0e">One run is an anecdote; the spread is the object</text>
<text x="350" y="52" text-anchor="middle" font-family="'Inter',-apple-system,'Helvetica Neue',sans-serif" font-size="12" fill="#545454">Fix the prompt, run it many times, summarize the outcomes</text>

<!-- fixed prompt block -->
<rect x="44" y="180" width="96" height="60" fill="#F5F5F5" stroke="#545454" stroke-width="1.5"/>
<rect x="54" y="196" width="60" height="6" fill="#545454"/>
<rect x="54" y="210" width="76" height="6" fill="#545454"/>
<rect x="54" y="224" width="44" height="6" fill="#545454"/>
<text x="92" y="262" text-anchor="middle" font-family="'Inter',-apple-system,'Helvetica Neue',sans-serif" font-size="12" fill="#2a1a0e">Fixed prompt</text>

<!-- fan out to many runs -->
<g stroke="#2a1a0e" stroke-width="1" fill="none">
<line x1="142" y1="210" x2="222" y2="92" marker-end="url(#arrow4)"/>
<line x1="142" y1="210" x2="222" y2="128" marker-end="url(#arrow4)"/>
<line x1="142" y1="210" x2="222" y2="164" marker-end="url(#arrow4)"/>
<line x1="142" y1="210" x2="222" y2="200" marker-end="url(#arrow4)"/>
<line x1="142" y1="210" x2="222" y2="236" marker-end="url(#arrow4)"/>
<line x1="142" y1="210" x2="222" y2="272" marker-end="url(#arrow4)"/>
<line x1="142" y1="210" x2="222" y2="308" marker-end="url(#arrow4)"/>
</g>
<!-- run markers -->
<g fill="#D4D4D4" stroke="#545454" stroke-width="1">
<rect x="226" y="82" width="40" height="18"/>
<rect x="226" y="118" width="40" height="18"/>
<rect x="226" y="154" width="40" height="18"/>
<rect x="226" y="190" width="40" height="18"/>
<rect x="226" y="226" width="40" height="18"/>
<rect x="226" y="262" width="40" height="18"/>
<rect x="226" y="298" width="40" height="18"/>
</g>
<text x="246" y="338" text-anchor="middle" font-family="'Inter',-apple-system,'Helvetica Neue',sans-serif" font-size="11" fill="#545454">N repeated runs</text>

<!-- collapse arrows -->
<g stroke="#2a1a0e" stroke-width="1" fill="none">
<line x1="268" y1="91" x2="430" y2="200" marker-end="url(#arrow4)"/>
<line x1="268" y1="199" x2="430" y2="200" marker-end="url(#arrow4)"/>
<line x1="268" y1="307" x2="430" y2="200" marker-end="url(#arrow4)"/>
</g>

<!-- summary chart -->
<g>
<rect x="440" y="100" width="210" height="200" fill="#F5F5F5" stroke="#D4D4D4" stroke-width="1"/>
<line x1="440" y1="290" x2="650" y2="290" stroke="#2a1a0e" stroke-width="1"/>
<line x1="440" y1="100" x2="440" y2="290" stroke="#2a1a0e" stroke-width="1"/>
<rect x="470" y="130" width="44" height="160" fill="#C8102E"/>
<rect x="540" y="190" width="44" height="100" fill="#545454"/>
<rect x="600" y="240" width="40" height="50" fill="#545454"/>
<text x="492" y="310" text-anchor="middle" font-family="'Inter',-apple-system,'Helvetica Neue',sans-serif" font-size="11" fill="#2a1a0e">Correct</text>
<text x="562" y="310" text-anchor="middle" font-family="'Inter',-apple-system,'Helvetica Neue',sans-serif" font-size="11" fill="#545454">Varied</text>
<text x="620" y="310" text-anchor="middle" font-family="'Inter',-apple-system,'Helvetica Neue',sans-serif" font-size="11" fill="#545454">Malformed</text>
</g>
<text x="545" y="338" text-anchor="middle" font-family="'Inter',-apple-system,'Helvetica Neue',sans-serif" font-size="11" fill="#545454">Outcome summary</text>

<text x="350" y="376" text-anchor="middle" font-family="'Inter',-apple-system,'Helvetica Neue',sans-serif" font-size="11" fill="#545454">The distribution of outcomes across many runs, not a single output, characterizes the prompt. Bars from zero.</text>
</svg>