<!-- The Transformer Attention Pipeline as Syntax | Book: Prompt Engineering | Chapter: 03-the-limits-of-syntax | Figure: 02 | Generated: 2026-05-29 | Source: pantry/03-the-limits-of-syntax-cajal.md -->
<svg viewBox="0 0 700 480" xmlns="http://www.w3.org/2000/svg" role="img" aria-labelledby="fig-title-02 fig-desc-02"><title id="fig-title-02">The Transformer Attention Pipeline as Syntax</title><desc id="fig-desc-02">A vertical seven-stage pipeline from input tokens through embedding, Q/K/V attention, softmax, weighted values, repeated layers, and final projection to one emitted token. Every stage is a mathematical operation on numerical arrays.</desc><metadata><cajal:figure xmlns:cajal="https://bearbrown.ai/cajal/1.0" book-slug="prompt-engineering" chapter="03-the-limits-of-syntax" figure-number="02" date-generated="2026-05-29"/></metadata>
<defs>
<marker id="ah02" markerWidth="9" markerHeight="9" refX="7" refY="4" orient="auto"><path d="M0,0 L8,4 L0,8 Z" fill="#2a1a0e"/></marker>
</defs>
<rect x="0" y="0" width="700" height="480" fill="#FFFFFF"/>
<text x="350" y="32" text-anchor="middle" font-family="'EB Garamond',Georgia,serif" font-size="16" fill="#2a1a0e">The Transformer Pipeline Is Syntax All the Way Down</text>
<text x="350" y="52" text-anchor="middle" font-family="'Inter',-apple-system,'Helvetica Neue',sans-serif" font-size="12" fill="#545454">Every stage operates on numerical arrays; no step connects a symbol to a referent</text>

<!-- 1 input token sequence -->
<g font-family="'Inter',-apple-system,'Helvetica Neue',sans-serif">
<rect x="245" y="70" width="210" height="34" fill="#F5F5F5" stroke="#545454" stroke-width="1"/>
<rect x="258" y="79" width="16" height="16" fill="#D4D4D4" stroke="#545454"/>
<rect x="280" y="79" width="16" height="16" fill="#D4D4D4" stroke="#545454"/>
<rect x="302" y="79" width="16" height="16" fill="#D4D4D4" stroke="#545454"/>
<rect x="324" y="79" width="16" height="16" fill="#D4D4D4" stroke="#545454"/>
<rect x="346" y="79" width="16" height="16" fill="#D4D4D4" stroke="#545454"/>
<text x="430" y="91" text-anchor="end" font-size="11" fill="#2a1a0e">Input tokens</text>
<line x1="350" y1="104" x2="350" y2="120" stroke="#2a1a0e" stroke-width="1.5" marker-end="url(#ah02)"/>

<!-- 2 embedding vector bars -->
<rect x="245" y="122" width="210" height="38" fill="#F5F5F5" stroke="#2a1a0e" stroke-width="1.2"/>
<rect x="262" y="130" width="10" height="24" fill="#545454"/>
<rect x="278" y="134" width="10" height="20" fill="#545454"/>
<rect x="294" y="128" width="10" height="26" fill="#545454"/>
<rect x="310" y="136" width="10" height="18" fill="#545454"/>
<rect x="326" y="131" width="10" height="23" fill="#545454"/>
<text x="445" y="145" text-anchor="end" font-size="11" fill="#2a1a0e">Embedding</text>
<line x1="350" y1="160" x2="350" y2="176" stroke="#2a1a0e" stroke-width="1.5" marker-end="url(#ah02)"/>

<!-- 3 Q/K/V converge -->
<rect x="240" y="178" width="44" height="26" fill="#F5F5F5" stroke="#C8102E" stroke-width="1.4"/>
<text x="262" y="195" text-anchor="middle" font-size="11" fill="#C8102E">Q</text>
<rect x="328" y="178" width="44" height="26" fill="#F5F5F5" stroke="#C8102E" stroke-width="1.4"/>
<text x="350" y="195" text-anchor="middle" font-size="11" fill="#C8102E">K</text>
<rect x="416" y="178" width="44" height="26" fill="#F5F5F5" stroke="#C8102E" stroke-width="1.4"/>
<text x="438" y="195" text-anchor="middle" font-size="11" fill="#C8102E">V</text>
<line x1="262" y1="204" x2="338" y2="224" stroke="#2a1a0e" stroke-width="1.2"/>
<line x1="350" y1="204" x2="350" y2="224" stroke="#2a1a0e" stroke-width="1.2"/>
<line x1="438" y1="204" x2="362" y2="224" stroke="#2a1a0e" stroke-width="1.2"/>
<rect x="300" y="226" width="100" height="30" fill="#F5F5F5" stroke="#2a1a0e" stroke-width="1.2"/>
<text x="350" y="246" text-anchor="middle" font-size="11" fill="#2a1a0e">Attention</text>
<line x1="350" y1="256" x2="350" y2="272" stroke="#2a1a0e" stroke-width="1.5" marker-end="url(#ah02)"/>

<!-- 4 softmax distribution -->
<rect x="300" y="274" width="100" height="34" fill="#F5F5F5" stroke="#2a1a0e" stroke-width="1.2"/>
<polyline points="312,302 326,290 340,283 354,288 368,296 388,304" fill="none" stroke="#545454" stroke-width="1.4"/>
<text x="455" y="295" text-anchor="end" font-size="11" fill="#2a1a0e">Softmax</text>
<line x1="350" y1="308" x2="350" y2="324" stroke="#2a1a0e" stroke-width="1.5" marker-end="url(#ah02)"/>

<!-- 5 weighted value -->
<rect x="300" y="326" width="100" height="30" fill="#F5F5F5" stroke="#2a1a0e" stroke-width="1.2"/>
<text x="350" y="346" text-anchor="middle" font-size="11" fill="#2a1a0e">Weighted value</text>
<line x1="350" y1="356" x2="350" y2="372" stroke="#2a1a0e" stroke-width="1.5" marker-end="url(#ah02)"/>

<!-- 6 repeated layer stack -->
<rect x="312" y="382" width="76" height="22" fill="#F5F5F5" stroke="#2a1a0e" stroke-width="1.2"/>
<rect x="306" y="378" width="76" height="22" fill="#F5F5F5" stroke="#2a1a0e" stroke-width="1.2"/>
<rect x="300" y="374" width="76" height="22" fill="#F5F5F5" stroke="#2a1a0e" stroke-width="1.2"/>
<text x="455" y="389" text-anchor="end" font-size="11" fill="#2a1a0e">Layers (xN)</text>
<line x1="338" y1="404" x2="338" y2="420" stroke="#2a1a0e" stroke-width="1.5" marker-end="url(#ah02)"/>

<!-- 7 final projection emitting one token -->
<rect x="300" y="422" width="76" height="34" fill="#F5F5F5" stroke="#2a1a0e" stroke-width="1.2"/>
<rect x="330" y="430" width="16" height="18" fill="#C8102E"/>
<text x="455" y="443" text-anchor="end" font-size="11" fill="#C8102E">Sampled token</text>
</g>
</svg>
