<!-- Tighten the path vs. widen the sample | Book: Prompt Engineering | Chapter: 08-reasoning-and-range-patterns | Figure: 01 | Generated: 2026-05-29 | Source: pantry/08-reasoning-and-range-patterns-cajal.md -->
<svg viewBox="0 0 700 420" xmlns="http://www.w3.org/2000/svg" role="img" aria-labelledby="fig-title-01 fig-desc-01">
<title id="fig-title-01">Tighten the path versus widen the sample</title>
<desc id="fig-desc-01">Two distributions on a shared baseline. Reasoning patterns tighten the distribution into a tall narrow peak and take the single best path. Range patterns widen the distribution and draw several samples across its spread.</desc>
<metadata><cajal:figure xmlns:cajal="https://bearbrown.ai/cajal/1.0" book-slug="prompt-engineering" chapter="08-reasoning-and-range-patterns" figure-number="01" date-generated="2026-05-29"/></metadata>
<rect x="0" y="0" width="700" height="420" fill="#FFFFFF"/>
<defs>
<marker id="arrow08f1" viewBox="0 0 10 10" refX="9" refY="5" markerWidth="7" markerHeight="7" orient="auto-start-reverse">
<path d="M0,0 L10,5 L0,10 z" fill="#2a1a0e"/>
</marker>
<marker id="arrow08f1s" viewBox="0 0 10 10" refX="9" refY="5" markerWidth="6" markerHeight="6" orient="auto-start-reverse">
<path d="M0,0 L10,5 L0,10 z" fill="#545454"/>
</marker>
</defs>

<text x="350" y="34" text-anchor="middle" font-family="'EB Garamond',Georgia,serif" font-size="16" fill="#2a1a0e">Two opposite moves on one sampling machine</text>

<!-- divider -->
<line x1="350" y1="60" x2="350" y2="380" stroke="#D4D4D4" stroke-width="1"/>

<!-- LEFT: tighten -->
<text x="175" y="82" text-anchor="middle" font-family="'Inter',-apple-system,'Helvetica Neue',sans-serif" font-size="13" fill="#2a1a0e" font-weight="600">Tighten the path</text>
<text x="175" y="100" text-anchor="middle" font-family="'Inter',-apple-system,'Helvetica Neue',sans-serif" font-size="11" fill="#545454">reasoning patterns</text>
<rect x="60" y="120" width="230" height="180" fill="#F5F5F5" stroke="none"/>
<line x1="60" y1="300" x2="290" y2="300" stroke="#2a1a0e" stroke-width="1"/>
<line x1="60" y1="120" x2="60" y2="300" stroke="#2a1a0e" stroke-width="1"/>
<!-- narrow tall peak (red emphasis) -->
<path d="M 100 300 C 150 300 160 140 175 140 C 190 140 200 300 250 300 Z" fill="#C8102E" fill-opacity="0.15" stroke="#C8102E" stroke-width="2"/>
<!-- single chosen path arrow at peak -->
<line x1="175" y1="120" x2="175" y2="138" stroke="#2a1a0e" stroke-width="1.5" marker-end="url(#arrow08f1)"/>
<text x="175" y="324" text-anchor="middle" font-family="'Inter',-apple-system,'Helvetica Neue',sans-serif" font-size="11" fill="#545454">one best path, mode</text>

<!-- RIGHT: widen -->
<text x="525" y="82" text-anchor="middle" font-family="'Inter',-apple-system,'Helvetica Neue',sans-serif" font-size="13" fill="#2a1a0e" font-weight="600">Widen the sample</text>
<text x="525" y="100" text-anchor="middle" font-family="'Inter',-apple-system,'Helvetica Neue',sans-serif" font-size="11" fill="#545454">range patterns</text>
<rect x="410" y="120" width="230" height="180" fill="#F5F5F5" stroke="none"/>
<line x1="410" y1="300" x2="640" y2="300" stroke="#2a1a0e" stroke-width="1"/>
<line x1="410" y1="120" x2="410" y2="300" stroke="#2a1a0e" stroke-width="1"/>
<!-- broad low hump (gray outline) -->
<path d="M 425 300 C 470 300 480 210 525 210 C 570 210 580 300 625 300 Z" fill="#FFFFFF" stroke="#545454" stroke-width="1.5"/>
<!-- several sample ticks + fan arrows -->
<line x1="460" y1="300" x2="460" y2="278" stroke="#545454" stroke-width="1"/>
<line x1="460" y1="278" x2="450" y2="252" stroke="#545454" stroke-width="1" marker-end="url(#arrow08f1s)"/>
<line x1="500" y1="300" x2="500" y2="240" stroke="#545454" stroke-width="1"/>
<line x1="500" y1="240" x2="495" y2="214" stroke="#545454" stroke-width="1" marker-end="url(#arrow08f1s)"/>
<line x1="545" y1="300" x2="545" y2="238" stroke="#545454" stroke-width="1"/>
<line x1="545" y1="238" x2="552" y2="214" stroke="#545454" stroke-width="1" marker-end="url(#arrow08f1s)"/>
<line x1="585" y1="300" x2="585" y2="272" stroke="#545454" stroke-width="1"/>
<line x1="585" y1="272" x2="595" y2="248" stroke="#545454" stroke-width="1" marker-end="url(#arrow08f1s)"/>
<text x="525" y="324" text-anchor="middle" font-family="'Inter',-apple-system,'Helvetica Neue',sans-serif" font-size="11" fill="#545454">many paths drawn</text>

<!-- shared baseline note -->
<text x="350" y="362" text-anchor="middle" font-family="'Inter',-apple-system,'Helvetica Neue',sans-serif" font-size="11" fill="#545454">Same machine, same baseline &#8212; narrowed versus broadened.</text>
</svg>
